<?xml version="1.0" encoding="UTF-8"?>
<svg id="Calque_1" data-name="Calque 1" xmlns="http://www.w3.org/2000/svg" viewBox="0 0 500 500">
  <path d="m318.27,316.95c-7.64,2.16-15.87-1.43-18.38-8.04l-7.05-18.57-28.85,75.97c-2.01,5.32-7.72,8.68-13.84,8.68h-.28c-6.12,0-11.83-3.36-13.84-8.68l-28.85-75.97-7.05,18.57c-2.01,5.31-7.72,8.67-13.84,8.67-1.51,0-3.04-.2-4.54-.63-7.64-2.18-11.8-9.3-9.28-15.91l8.48-22.36h52.46l16.62,43.74,16.6-43.74h52.46l8.48,22.36c2.51,6.6-1.65,13.73-9.28,15.91Z" style="fill: #715aff; stroke-width: 0px;"/>
  <path d="m298.9,225.62l-6.07-15.99-3.28-8.65-25.57-67.31c-2.01-5.31-7.7-8.67-13.83-8.67h-.33c-6.11,0-11.8,3.36-13.81,8.67l-25.57,67.31-3.28,8.65-6.07,15.99-6.12,16.12h30.66l6.12-16.12h36.5l6.12,16.12h30.65l-6.12-16.12Zm-57.8-24.64l8.9-23.43,8.9,23.43h-17.8Z" style="fill: #715aff; stroke-width: 0px;"/>
  <circle cx="250" cy="258.73" r="16.02" style="fill: #fafaff; stroke-width: 0px;"/>
</svg>